<mxfile host="app.diagrams.net" agent="Mozilla/5.0 (Windows NT 10.0; Win64; x64) AppleWebKit/537.36 (KHTML, like Gecko) Chrome/135.0.0.0 Safari/537.36" version="28.2.3">
  <diagram name="Page-1" id="SzWtBYcz7iiE2Mdubn_m">
    <mxGraphModel dx="1426" dy="785" grid="1" gridSize="10" guides="1" tooltips="1" connect="1" arrows="1" fold="1" page="1" pageScale="1" pageWidth="1400" pageHeight="850" math="0" shadow="0">
      <root>
        <mxCell id="0" />
        <mxCell id="1" parent="0" />
        <mxCell id="3tCdxOXIQLvyextxN_fL-1" value="Students" style="rounded=0;whiteSpace=wrap;html=1;container=0;" vertex="1" parent="1">
          <mxGeometry x="320" y="244.52" width="120" height="60" as="geometry" />
        </mxCell>
        <mxCell id="3tCdxOXIQLvyextxN_fL-4" value="Book" style="rounded=0;whiteSpace=wrap;html=1;container=0;" vertex="1" parent="1">
          <mxGeometry x="890" y="244.52" width="120" height="60" as="geometry" />
        </mxCell>
        <mxCell id="3tCdxOXIQLvyextxN_fL-6" value="Borrow" style="shape=associativeEntity;whiteSpace=wrap;html=1;align=center;container=0;" vertex="1" parent="1">
          <mxGeometry x="600" y="244.52" width="140" height="60" as="geometry" />
        </mxCell>
        <mxCell id="3tCdxOXIQLvyextxN_fL-7" value="" style="endArrow=none;html=1;rounded=0;" edge="1" parent="1">
          <mxGeometry width="50" height="50" relative="1" as="geometry">
            <mxPoint x="320" y="244.52" as="sourcePoint" />
            <mxPoint x="300" y="194.52" as="targetPoint" />
          </mxGeometry>
        </mxCell>
        <mxCell id="3tCdxOXIQLvyextxN_fL-8" value="&lt;u&gt;Student_id&lt;/u&gt;" style="ellipse;whiteSpace=wrap;html=1;container=0;" vertex="1" parent="1">
          <mxGeometry x="230" y="144.52" width="110" height="50" as="geometry" />
        </mxCell>
        <mxCell id="3tCdxOXIQLvyextxN_fL-11" value="" style="endArrow=none;html=1;rounded=0;" edge="1" parent="1">
          <mxGeometry width="50" height="50" relative="1" as="geometry">
            <mxPoint x="370" y="244.52" as="sourcePoint" />
            <mxPoint x="390" y="194.52" as="targetPoint" />
          </mxGeometry>
        </mxCell>
        <mxCell id="3tCdxOXIQLvyextxN_fL-12" value="Fname" style="ellipse;whiteSpace=wrap;html=1;container=0;" vertex="1" parent="1">
          <mxGeometry x="350" y="134.52" width="100" height="60" as="geometry" />
        </mxCell>
        <mxCell id="3tCdxOXIQLvyextxN_fL-13" value="" style="endArrow=none;html=1;rounded=0;" edge="1" parent="1">
          <mxGeometry width="50" height="50" relative="1" as="geometry">
            <mxPoint x="420" y="244.52" as="sourcePoint" />
            <mxPoint x="470" y="204.52" as="targetPoint" />
          </mxGeometry>
        </mxCell>
        <mxCell id="3tCdxOXIQLvyextxN_fL-14" value="Lname" style="ellipse;whiteSpace=wrap;html=1;container=0;" vertex="1" parent="1">
          <mxGeometry x="450" y="144.52" width="110" height="65" as="geometry" />
        </mxCell>
        <mxCell id="3tCdxOXIQLvyextxN_fL-15" value="" style="endArrow=none;html=1;rounded=0;" edge="1" parent="1">
          <mxGeometry width="50" height="50" relative="1" as="geometry">
            <mxPoint x="320" y="344.52" as="sourcePoint" />
            <mxPoint x="350" y="304.52" as="targetPoint" />
          </mxGeometry>
        </mxCell>
        <mxCell id="3tCdxOXIQLvyextxN_fL-17" value="" style="endArrow=none;html=1;rounded=0;" edge="1" parent="1">
          <mxGeometry width="50" height="50" relative="1" as="geometry">
            <mxPoint x="430" y="344.52" as="sourcePoint" />
            <mxPoint x="410" y="304.52" as="targetPoint" />
          </mxGeometry>
        </mxCell>
        <mxCell id="3tCdxOXIQLvyextxN_fL-18" value="Year level" style="ellipse;whiteSpace=wrap;html=1;container=0;" vertex="1" parent="1">
          <mxGeometry x="270" y="344.52" width="110" height="60" as="geometry" />
        </mxCell>
        <mxCell id="3tCdxOXIQLvyextxN_fL-19" value="Course" style="ellipse;whiteSpace=wrap;html=1;container=0;" vertex="1" parent="1">
          <mxGeometry x="390" y="344.52" width="110" height="60" as="geometry" />
        </mxCell>
        <mxCell id="3tCdxOXIQLvyextxN_fL-20" value="" style="endArrow=none;html=1;rounded=0;" edge="1" parent="1">
          <mxGeometry width="50" height="50" relative="1" as="geometry">
            <mxPoint x="610" y="344.52" as="sourcePoint" />
            <mxPoint x="650" y="304.52" as="targetPoint" />
          </mxGeometry>
        </mxCell>
        <mxCell id="3tCdxOXIQLvyextxN_fL-21" value="" style="endArrow=none;html=1;rounded=0;" edge="1" parent="1">
          <mxGeometry width="50" height="50" relative="1" as="geometry">
            <mxPoint x="740" y="344.52" as="sourcePoint" />
            <mxPoint x="700" y="304.52" as="targetPoint" />
          </mxGeometry>
        </mxCell>
        <mxCell id="3tCdxOXIQLvyextxN_fL-22" value="" style="endArrow=none;html=1;rounded=0;" edge="1" parent="1">
          <mxGeometry width="50" height="50" relative="1" as="geometry">
            <mxPoint x="650" y="244.52" as="sourcePoint" />
            <mxPoint x="640" y="194.52" as="targetPoint" />
          </mxGeometry>
        </mxCell>
        <mxCell id="3tCdxOXIQLvyextxN_fL-23" value="" style="endArrow=none;html=1;rounded=0;" edge="1" parent="1">
          <mxGeometry width="50" height="50" relative="1" as="geometry">
            <mxPoint x="690" y="244.52" as="sourcePoint" />
            <mxPoint x="730" y="194.52" as="targetPoint" />
          </mxGeometry>
        </mxCell>
        <mxCell id="3tCdxOXIQLvyextxN_fL-25" value="&lt;u&gt;Borrow_id&lt;/u&gt;" style="ellipse;whiteSpace=wrap;html=1;container=0;" vertex="1" parent="1">
          <mxGeometry x="580" y="134.52" width="110" height="60" as="geometry" />
        </mxCell>
        <mxCell id="3tCdxOXIQLvyextxN_fL-26" value="Date borrowed" style="ellipse;whiteSpace=wrap;html=1;container=0;" vertex="1" parent="1">
          <mxGeometry x="690" y="134.52" width="110" height="60" as="geometry" />
        </mxCell>
        <mxCell id="3tCdxOXIQLvyextxN_fL-27" value="Due date" style="ellipse;whiteSpace=wrap;html=1;container=0;" vertex="1" parent="1">
          <mxGeometry x="550" y="344.52" width="110" height="60" as="geometry" />
        </mxCell>
        <mxCell id="3tCdxOXIQLvyextxN_fL-28" value="Retrun date" style="ellipse;whiteSpace=wrap;html=1;container=0;" vertex="1" parent="1">
          <mxGeometry x="700" y="344.52" width="110" height="60" as="geometry" />
        </mxCell>
        <mxCell id="3tCdxOXIQLvyextxN_fL-31" value="" style="endArrow=none;html=1;rounded=0;" edge="1" parent="1">
          <mxGeometry width="50" height="50" relative="1" as="geometry">
            <mxPoint x="920" y="245.02" as="sourcePoint" />
            <mxPoint x="900" y="194.52" as="targetPoint" />
          </mxGeometry>
        </mxCell>
        <mxCell id="3tCdxOXIQLvyextxN_fL-32" value="&lt;i&gt;&lt;u&gt;Book_id&lt;/u&gt;&lt;/i&gt;" style="ellipse;whiteSpace=wrap;html=1;container=0;" vertex="1" parent="1">
          <mxGeometry x="840" y="134.52" width="110" height="60" as="geometry" />
        </mxCell>
        <mxCell id="3tCdxOXIQLvyextxN_fL-33" value="" style="endArrow=none;html=1;rounded=0;" edge="1" parent="1">
          <mxGeometry width="50" height="50" relative="1" as="geometry">
            <mxPoint x="970" y="242.02" as="sourcePoint" />
            <mxPoint x="990" y="194.52" as="targetPoint" />
          </mxGeometry>
        </mxCell>
        <mxCell id="3tCdxOXIQLvyextxN_fL-34" value="Title" style="ellipse;whiteSpace=wrap;html=1;container=0;" vertex="1" parent="1">
          <mxGeometry x="950" y="134.52" width="110" height="60" as="geometry" />
        </mxCell>
        <mxCell id="3tCdxOXIQLvyextxN_fL-35" value="" style="endArrow=none;html=1;rounded=0;" edge="1" parent="1">
          <mxGeometry width="50" height="50" relative="1" as="geometry">
            <mxPoint x="1010" y="282.02" as="sourcePoint" />
            <mxPoint x="1060" y="234.52" as="targetPoint" />
          </mxGeometry>
        </mxCell>
        <mxCell id="3tCdxOXIQLvyextxN_fL-36" value="Author" style="ellipse;whiteSpace=wrap;html=1;container=0;" vertex="1" parent="1">
          <mxGeometry x="1040" y="184.52" width="110" height="60" as="geometry" />
        </mxCell>
        <mxCell id="3tCdxOXIQLvyextxN_fL-37" value="" style="endArrow=none;html=1;rounded=0;" edge="1" parent="1">
          <mxGeometry width="50" height="50" relative="1" as="geometry">
            <mxPoint x="890" y="364.52" as="sourcePoint" />
            <mxPoint x="910" y="304.02" as="targetPoint" />
          </mxGeometry>
        </mxCell>
        <mxCell id="3tCdxOXIQLvyextxN_fL-38" value="Year published" style="ellipse;whiteSpace=wrap;html=1;container=0;" vertex="1" parent="1">
          <mxGeometry x="830" y="364.52" width="110" height="60" as="geometry" />
        </mxCell>
        <mxCell id="3tCdxOXIQLvyextxN_fL-39" value="" style="endArrow=none;html=1;rounded=0;" edge="1" parent="1">
          <mxGeometry width="50" height="50" relative="1" as="geometry">
            <mxPoint x="980" y="364.52" as="sourcePoint" />
            <mxPoint x="950" y="304.52" as="targetPoint" />
          </mxGeometry>
        </mxCell>
        <mxCell id="3tCdxOXIQLvyextxN_fL-40" value="Category" style="ellipse;whiteSpace=wrap;html=1;container=0;" vertex="1" parent="1">
          <mxGeometry x="950" y="364.52" width="110" height="60" as="geometry" />
        </mxCell>
        <mxCell id="3tCdxOXIQLvyextxN_fL-41" value="" style="endArrow=none;html=1;rounded=0;exitX=0.961;exitY=1.025;exitDx=0;exitDy=0;exitPerimeter=0;" edge="1" parent="1" source="3tCdxOXIQLvyextxN_fL-4">
          <mxGeometry width="50" height="50" relative="1" as="geometry">
            <mxPoint x="1010" y="323.27" as="sourcePoint" />
            <mxPoint x="1080" y="325.77" as="targetPoint" />
          </mxGeometry>
        </mxCell>
        <mxCell id="3tCdxOXIQLvyextxN_fL-42" value="Status Avail/Borrowed" style="ellipse;whiteSpace=wrap;html=1;container=0;" vertex="1" parent="1">
          <mxGeometry x="1070" y="304.52" width="110" height="60" as="geometry" />
        </mxCell>
        <mxCell id="3tCdxOXIQLvyextxN_fL-43" value="" style="edgeStyle=entityRelationEdgeStyle;fontSize=12;html=1;endArrow=ERoneToMany;startArrow=ERzeroToOne;rounded=0;entryX=0;entryY=0.5;entryDx=0;entryDy=0;exitX=0.992;exitY=0.617;exitDx=0;exitDy=0;exitPerimeter=0;" edge="1" parent="1" target="3tCdxOXIQLvyextxN_fL-6">
          <mxGeometry width="100" height="100" relative="1" as="geometry">
            <mxPoint x="439.99999999999994" y="274.52" as="sourcePoint" />
            <mxPoint x="605.04" y="276.5" as="targetPoint" />
            <Array as="points">
              <mxPoint x="520.96" y="217.50000000000003" />
              <mxPoint x="510.96" y="247.50000000000003" />
              <mxPoint x="540.96" y="237.50000000000003" />
              <mxPoint x="480" y="247.50000000000003" />
              <mxPoint x="520" y="267.5" />
              <mxPoint x="460" y="271.5" />
              <mxPoint x="415.02" y="120" />
              <mxPoint x="485.02" y="190.00000000000003" />
              <mxPoint x="565.02" y="271.5" />
              <mxPoint x="565.02" y="277.5" />
              <mxPoint x="570.02" y="271.5" />
              <mxPoint x="575.02" y="271.5" />
            </Array>
          </mxGeometry>
        </mxCell>
        <mxCell id="3tCdxOXIQLvyextxN_fL-45" value="" style="edgeStyle=entityRelationEdgeStyle;fontSize=12;html=1;endArrow=ERzeroToMany;startArrow=ERmandOne;rounded=0;entryX=1;entryY=0.5;entryDx=0;entryDy=0;" edge="1" parent="1" target="3tCdxOXIQLvyextxN_fL-6">
          <mxGeometry width="100" height="100" relative="1" as="geometry">
            <mxPoint x="860" y="274.52" as="sourcePoint" />
            <mxPoint x="780" y="274.28" as="targetPoint" />
            <Array as="points">
              <mxPoint x="800" y="274.28" />
              <mxPoint x="890" y="274.52" />
              <mxPoint x="710" y="274.28" />
              <mxPoint x="800" y="264.28" />
              <mxPoint x="740" y="274.52" />
              <mxPoint x="740" y="274.52" />
              <mxPoint x="760" y="264.28" />
              <mxPoint x="730" y="254.28" />
            </Array>
          </mxGeometry>
        </mxCell>
        <mxCell id="3tCdxOXIQLvyextxN_fL-46" value="Librarian" style="rounded=0;whiteSpace=wrap;html=1;container=0;" vertex="1" parent="1">
          <mxGeometry x="610" y="534.52" width="120" height="60" as="geometry" />
        </mxCell>
        <mxCell id="3tCdxOXIQLvyextxN_fL-47" value="" style="endArrow=none;html=1;rounded=0;" edge="1" parent="1">
          <mxGeometry width="50" height="50" relative="1" as="geometry">
            <mxPoint x="645" y="534.52" as="sourcePoint" />
            <mxPoint x="620" y="484.52" as="targetPoint" />
          </mxGeometry>
        </mxCell>
        <mxCell id="3tCdxOXIQLvyextxN_fL-48" value="&lt;u&gt;Librarian_id&lt;/u&gt;" style="ellipse;whiteSpace=wrap;html=1;container=0;" vertex="1" parent="1">
          <mxGeometry x="560" y="424.52" width="110" height="60" as="geometry" />
        </mxCell>
        <mxCell id="3tCdxOXIQLvyextxN_fL-49" value="" style="endArrow=none;html=1;rounded=0;" edge="1" parent="1">
          <mxGeometry width="50" height="50" relative="1" as="geometry">
            <mxPoint x="700" y="534.52" as="sourcePoint" />
            <mxPoint x="730" y="484.52" as="targetPoint" />
          </mxGeometry>
        </mxCell>
        <mxCell id="3tCdxOXIQLvyextxN_fL-50" value="Fname" style="ellipse;whiteSpace=wrap;html=1;container=0;" vertex="1" parent="1">
          <mxGeometry x="700" y="424.52" width="110" height="60" as="geometry" />
        </mxCell>
        <mxCell id="3tCdxOXIQLvyextxN_fL-51" value="" style="endArrow=none;html=1;rounded=0;" edge="1" parent="1">
          <mxGeometry width="50" height="50" relative="1" as="geometry">
            <mxPoint x="725" y="644.52" as="sourcePoint" />
            <mxPoint x="700" y="594.52" as="targetPoint" />
          </mxGeometry>
        </mxCell>
        <mxCell id="3tCdxOXIQLvyextxN_fL-52" value="Position" style="ellipse;whiteSpace=wrap;html=1;container=0;" vertex="1" parent="1">
          <mxGeometry x="690" y="644.52" width="110" height="60" as="geometry" />
        </mxCell>
        <mxCell id="3tCdxOXIQLvyextxN_fL-53" value="" style="endArrow=none;html=1;rounded=0;" edge="1" parent="1">
          <mxGeometry width="50" height="50" relative="1" as="geometry">
            <mxPoint x="620" y="644.52" as="sourcePoint" />
            <mxPoint x="645" y="594.52" as="targetPoint" />
          </mxGeometry>
        </mxCell>
        <mxCell id="3tCdxOXIQLvyextxN_fL-54" value="Lname" style="ellipse;whiteSpace=wrap;html=1;container=0;" vertex="1" parent="1">
          <mxGeometry x="550" y="644.52" width="110" height="60" as="geometry" />
        </mxCell>
        <mxCell id="3tCdxOXIQLvyextxN_fL-55" value="" style="fontSize=12;html=1;endArrow=ERoneToMany;startArrow=ERmandOne;rounded=0;exitX=0.581;exitY=-0.021;exitDx=0;exitDy=0;entryX=0.559;entryY=1.065;entryDx=0;entryDy=0;entryPerimeter=0;exitPerimeter=0;" edge="1" parent="1" source="3tCdxOXIQLvyextxN_fL-46">
          <mxGeometry width="100" height="100" relative="1" as="geometry">
            <mxPoint x="679.72" y="527.8600000000001" as="sourcePoint" />
            <mxPoint x="678.26" y="304.52" as="targetPoint" />
          </mxGeometry>
        </mxCell>
      </root>
    </mxGraphModel>
  </diagram>
</mxfile>
